<!DOCTYPE svg PUBLIC "-//W3C//DTD SVG 1.1//EN" "http://www.w3.org/Graphics/SVG/1.1/DTD/svg11.dtd">
<!-- Uploaded to: SVG Repo, www.svgrepo.com, Transformed by: SVG Repo Mixer Tools -->
<svg fill="#F0C419" version="1.1" id="Capa_1" xmlns="http://www.w3.org/2000/svg" xmlns:xlink="http://www.w3.org/1999/xlink" width="800px" height="800px" viewBox="0 0 32.00 32.00" xml:space="preserve" stroke="#F0C419" stroke-width="0.00032">
<g id="SVGRepo_bgCarrier" stroke-width="0"/>
<g id="SVGRepo_tracerCarrier" stroke-linecap="round" stroke-linejoin="round"/>
<g id="SVGRepo_iconCarrier"> <g> <g> <polygon points="12.514,11.668 5.051,12.666 10.257,17.955 9.303,25.732 15.899,21.784 23.234,25.693 21.38,17.633 26.438,12.333 19.445,11.749 16.245,4.438 "/> <polygon points="11.571,10.33 12.617,8.304 9.249,0 3.138,0 11.139,10.388 "/> <polygon points="14.955,3.772 16.352,1.066 17.574,3.856 18.118,5.1 18.938,0 13.536,0 14.137,5.358 "/> <polygon points="21.139,10.434 29.968,0 24.109,0 19.896,9.159 20.428,10.375 "/> <polygon points="22.76,10.57 26.559,10.887 28.846,11.079 32,9.895 32,3.83 "/> <polygon points="23.753,17.248 32,18.934 32,14.128 26.355,14.521 "/> <polygon points="23.879,22.023 32,28.214 32,22.35 23.139,18.807 "/> <polygon points="25.361,28.473 22.552,26.975 20.046,25.639 22.734,32 28.84,32 25.085,27.27 "/> <polygon points="15.94,23.45 14.437,24.352 13.208,32 18.087,32 17.204,24.124 "/> <polygon points="7.501,28.503 7.836,25.768 2.891,32 9.131,32 11.662,26.012 10.048,26.979 "/> <polygon points="8.728,18.504 0,21.993 0,27.866 8.361,21.492 "/> <polygon points="4.398,14.07 0,13.764 0,18.574 7.352,17.072 "/> <polygon points="4.859,11.228 8.764,10.706 0,4.313 0,9.85 3.982,11.345 "/> </g> </g> </g>
</svg>